Patient4_TMGait_0pt7_01_right_26_EMG.mot
version=1
nRows=13
nColumns=33
inDegrees=no
endheader
time	1LAddLong	2LGlutMax	3LGlutMed	4LIliopsoas	5LSemiMemb	6LBicFemLong	7LRecFem	8LVastMed	9LVastLat	10LGasMed	11LTibAnt	12lTibPost	13LPeroneusLong	14LSol	15LExtDigLong	16LFlexDigLong	17RAddLong	18RGlutMax	19RGlutMed	20RIliopsoas	21RSemiMemb	22RBicFemLong	23RRecFem	24RVastMed	25RVastLat	26RGasMed	27RTibAnt	28RTibPost	29RPeroneusLong	30RSol	31RExtDigLong	32RFlexDigLong
30.6	0.009613	0.10773	-0.019226	-0.003967	-0.000305	0.017395	0.12146	-0.002594	0.016327	-0.034485	-0.021515	-0.020905	0.059204	0.31067	0.10559	-0.009155	-0.00473	-0.18921	-0.41718	0.054779	-0.025482	0.018616	0.016632	-0.087128	-0.005035	-0.081329	0.018616	-0.019836	-0.50903	-0.071716	-0.003052	0.005188
30.601	0.012665	0.11841	0.005951	-0.01236	0.019989	0.021515	0.15396	-0.011139	-0.003967	-0.046997	-0.056915	-0.011139	0.072174	0.39246	-0.10315	-0.015564	-0.000458	-0.04425	0.25482	0.025635	-0.020294	0.001678	0.039825	-0.063934	-0.00061	-0.095978	0.041351	-0.021667	-0.39642	-0.063477	-0.00473	0.004425
30.602	0.014648	0.15961	0.03006	-0.005798	0.010071	0.017395	0.2066	-0.014496	-0.010223	-0.028381	-0.00824	-0.017548	-0.013428	0.39505	0.14633	-0.01236	0.00061	0.10605	0.5336	-0.026093	-0.036469	-0.015564	0.027924	-0.067902	-0.008087	-0.10544	0.055084	-0.018616	-0.078583	-0.039063	-0.000458	0.009155
30.603	0.014648	0.1886	0.051727	0.002441	0.023956	0.01358	0.20935	-0.001984	0.012054	-0.013428	0.079803	-0.011292	-0.07431	0.25421	0.072021	-0.005951	0.012817	0.12177	0.0737	-0.066986	-0.057373	-0.015717	0.036011	-0.075684	-0.007019	-0.11414	0.061798	-0.018158	-0.086365	-0.00824	0.000458	-0.003052
30.604	0.014648	0.18784	0.01709	0.010681	0.032501	0.027771	0.1532	0.000458	0.008392	0.001984	0.10681	-0.014038	-0.10071	0.16602	-0.091248	0.000153	0.03006	0.073395	0.14542	-0.035553	-0.044556	-0.018158	0.017548	-0.06424	-0.00473	-0.11932	0.036469	-0.016479	-0.11108	-0.00473	-0.000763	0.004883
30.605	0.023346	0.18143	0.019531	0.003357	0.04425	0.002136	0.18829	0.00473	-0.011292	0.057068	0.04837	-0.008392	-0.099335	0.093689	-0.089264	-0.012207	0.032959	-0.00885	0.29495	-0.045013	0.040131	-0.03891	-0.006409	-0.054474	0.018463	-0.12192	0.016785	-0.019226	-0.08606	-0.072021	-0.003357	-0.002594
30.606	0.027771	0.17593	0.005188	0.009003	0.027924	-0.012512	0.24139	0.006714	0.001984	0.029755	0.019073	-0.010681	-0.071411	0.078735	-0.18356	-0.006561	0.003662	-0.02121	0.4216	-0.035248	0.10803	-0.013428	0.013885	-0.055695	0.012512	-0.12131	0.000763	-0.001678	0.081482	-0.084534	-0.000305	-0.006561
30.607	0.028839	0.15717	-0.061951	0.006256	0.023193	0.017853	0.17746	0.009918	0.006714	0.058899	0.025177	-0.008087	-0.05127	0.075226	-0.082703	-0.011597	0.027771	-0.091553	-0.11459	-0.088654	0.070038	-0.093842	0.019684	-0.098419	0.007172	-0.11322	0.020294	-0.010986	0.24109	-0.056458	-0.001984	-0.007629
30.608	0.002899	0.18356	-0.014801	0.008698	0.013733	0.014801	0.13367	0.013733	-0.039673	0.019073	-0.01358	-0.007782	-0.013275	-0.011597	-0.032043	0.003204	0.043488	-0.053558	-0.50064	-0.063782	-0.024872	-0.14832	0.050659	-0.10376	-0.005188	-0.10864	0.048981	-0.015564	0.29129	-0.03952	-0.001221	-0.009766
30.609	0.013885	0.21774	0.085449	-0.007019	0.032349	-0.004883	0.12161	0.018921	-0.054016	0.051575	-0.033569	-0.004425	-0.019073	-0.030212	0.054016	-0.003967	0.059814	-0.01709	-0.83725	0.000763	-0.10391	-0.19882	0.059052	-0.087738	-0.004425	-0.098267	0.035095	-0.014343	0.19486	-0.026703	-0.000305	-0.003815
30.61	0.023499	0.29663	0.049591	-0.006256	0.005798	-0.027313	0.26382	0.026398	-0.097198	0.05249	-0.014038	-0.005035	0.002136	-0.06424	0.011139	-0.00412	0.041656	0.020599	-0.89127	0.04425	-0.1265	-0.064087	0.025635	-0.058136	-0.00473	-0.092468	0.008545	-0.014343	0.054016	-0.029602	0.001068	-0.001984
30.611	0.013428	0.2092	0.036469	0.007629	0.02182	-0.000763	0.31036	0.042572	-0.10773	0.033417	0.015411	0.001526	0.038605	-0.015106	-0.004578	-0.007629	0.030975	0.065002	-0.67169	-0.063934	-0.18723	-0.033722	0.038147	-0.02533	0.010376	-0.081329	-0.032349	-0.015259	0.14786	-0.031738	-0.003204	-0.010529
30.612	0.017242	0.16357	0.00946	0.014801	0.008087	-0.005188	0.31448	0.061646	-0.12314	0.045929	0.029297	-0.002289	0.072327	0.008698	0.21637	-0.014343	0.013885	0.076904	-0.66574	-0.32776	-0.077362	0.025482	0.020447	-0.016937	0.022736	-0.067139	-0.00061	-0.019073	-0.18967	-0.041199	-0.001984	-0.010834
